<mxfile host="app.diagrams.net" modified="2024-04-24T13:50:19.909Z" agent="Mozilla/5.0 (Windows NT 10.0; Win64; x64) AppleWebKit/537.36 (KHTML, like Gecko) Chrome/124.0.0.0 Safari/537.36" version="24.2.5" etag="C8RTID13OZy63DnWDfn8" type="github">
  <diagram name="Page-1" id="kZaLzzmV4FLDoupmgaEu">
    <mxGraphModel>
      <root>
        <mxCell id="0" />
        <mxCell id="1" parent="0" />
      </root>
    </mxGraphModel>
  </diagram>
</mxfile>
